<svg width="1024" height="1024" viewBox="0 0 1024 1024" fill="none" xmlns="http://www.w3.org/2000/svg">
  <defs>
    <radialGradient id="bgGlow" cx="0" cy="0" r="1" gradientUnits="userSpaceOnUse" gradientTransform="translate(512 486) rotate(90) scale(374 356)">
      <stop offset="0" stop-color="#141922"/>
      <stop offset="0.55" stop-color="#0B0D10"/>
      <stop offset="1" stop-color="#060709"/>
    </radialGradient>
    <radialGradient id="halo" cx="0" cy="0" r="1" gradientUnits="userSpaceOnUse" gradientTransform="translate(512 470) rotate(90) scale(250 240)">
      <stop offset="0" stop-color="#242C3A" stop-opacity="0.78"/>
      <stop offset="1" stop-color="#0A0B0D" stop-opacity="0"/>
    </radialGradient>
    <linearGradient id="yellowToViolet" x1="248" y1="214" x2="788" y2="776" gradientUnits="userSpaceOnUse">
      <stop offset="0" stop-color="#FFD94A"/>
      <stop offset="0.28" stop-color="#FFBF1F"/>
      <stop offset="0.6" stop-color="#B55DFF"/>
      <stop offset="1" stop-color="#F6F6F6"/>
    </linearGradient>
    <linearGradient id="softLine" x1="286" y1="244" x2="742" y2="734" gradientUnits="userSpaceOnUse">
      <stop offset="0" stop-color="#FFF3C2"/>
      <stop offset="0.48" stop-color="#FEE77A"/>
      <stop offset="1" stop-color="#E2D5FF"/>
    </linearGradient>
    <filter id="outerGlow" x="136" y="132" width="752" height="760" filterUnits="userSpaceOnUse" color-interpolation-filters="sRGB">
      <feFlood flood-opacity="0" result="BackgroundImageFix"/>
      <feBlend mode="normal" in="SourceGraphic" in2="BackgroundImageFix" result="shape"/>
      <feGaussianBlur in="shape" stdDeviation="7" result="blur1"/>
      <feColorMatrix in="blur1" type="matrix" values="1 0 0 0 0.97 0 1 0 0 0.75 0 0 1 0 0.16 0 0 0 0.62 0" result="glow1"/>
      <feGaussianBlur in="shape" stdDeviation="2.2" result="blur2"/>
      <feColorMatrix in="blur2" type="matrix" values="1 0 0 0 0.88 0 1 0 0 0.82 0 0 1 0 0.22 0 0 0 0.28 0" result="glow2"/>
      <feMerge>
        <feMergeNode in="glow1"/>
        <feMergeNode in="glow2"/>
        <feMergeNode in="shape"/>
      </feMerge>
    </filter>
    <filter id="dotGlow" x="545" y="202" width="102" height="102" filterUnits="userSpaceOnUse" color-interpolation-filters="sRGB">
      <feFlood flood-opacity="0" result="BackgroundImageFix"/>
      <feBlend mode="normal" in="SourceGraphic" in2="BackgroundImageFix" result="shape"/>
      <feGaussianBlur stdDeviation="5.5" result="blur"/>
      <feColorMatrix in="blur" type="matrix" values="1 0 0 0 1 0 1 0 0 0.82 0 0 1 0 0.18 0 0 0 0.7 0"/>
    </filter>
  </defs>

  <rect x="24" y="24" width="976" height="976" rx="240" fill="#07080A"/>
  <ellipse cx="512" cy="506" rx="344" ry="328" fill="url(#bgGlow)"/>
  <ellipse cx="512" cy="506" rx="206" ry="182" fill="url(#halo)"/>
  <ellipse cx="512" cy="856" rx="286" ry="52" fill="#030406" opacity="0.76"/>

  <g filter="url(#outerGlow)">
    <path d="M282 246H402L369 296L442 352" stroke="url(#yellowToViolet)" stroke-width="17" stroke-linecap="round" stroke-linejoin="round"/>
    <path d="M370 295L438 352" stroke="#FFF0B2" stroke-width="6" stroke-linecap="round" opacity="0.85"/>

    <path d="M366 250C322 305 303 370 305 449C304 529 329 601 383 662C434 721 500 755 580 760C647 764 704 748 756 716" stroke="url(#yellowToViolet)" stroke-width="17" stroke-linecap="round" stroke-linejoin="round"/>
    <path d="M420 258C410 330 414 400 433 477" stroke="url(#softLine)" stroke-width="10" stroke-linecap="round"/>

    <path d="M426 489C454 468 487 457 523 457C563 457 598 470 628 495" stroke="url(#yellowToViolet)" stroke-width="16" stroke-linecap="round" stroke-linejoin="round"/>
    <path d="M509 457C519 500 539 536 568 564" stroke="url(#softLine)" stroke-width="11" stroke-linecap="round"/>
    <path d="M566 564C589 552 614 547 640 548C670 549 694 557 717 573" stroke="url(#yellowToViolet)" stroke-width="16" stroke-linecap="round" stroke-linejoin="round"/>

    <path d="M717 573C694 614 676 651 664 686C655 707 649 730 645 755" stroke="url(#softLine)" stroke-width="10" stroke-linecap="round" stroke-linejoin="round"/>
    <path d="M646 753C600 733 552 723 500 722C460 721 418 725 373 734" stroke="url(#yellowToViolet)" stroke-width="16" stroke-linecap="round" stroke-linejoin="round"/>

    <path d="M317 639C370 676 432 700 503 710C575 720 645 715 714 691" stroke="url(#softLine)" stroke-width="8" stroke-linecap="round" opacity="0.82"/>
    <path d="M319 639L285 554" stroke="url(#yellowToViolet)" stroke-width="12" stroke-linecap="round" stroke-linejoin="round"/>
    <path d="M742 687L788 738" stroke="url(#yellowToViolet)" stroke-width="12" stroke-linecap="round" stroke-linejoin="round"/>

    <path d="M468 540C486 520 506 509 529 508" stroke="#FFF7CE" stroke-width="7" stroke-linecap="round" opacity="0.66"/>
    <path d="M503 562C523 542 546 531 571 530" stroke="#FFF7CE" stroke-width="7" stroke-linecap="round" opacity="0.66"/>
    <path d="M538 584C560 565 585 555 611 554" stroke="#FFF7CE" stroke-width="7" stroke-linecap="round" opacity="0.66"/>
  </g>

  <g filter="url(#dotGlow)">
    <circle cx="606" cy="296" r="11" fill="#FFE15F"/>
    <circle cx="606" cy="296" r="4.4" fill="#FFF8D8"/>
  </g>
  <path d="M606 296L570 339" stroke="#FFF8D8" stroke-width="5.5" stroke-linecap="round" opacity="0.62"/>
</svg>
