<svg width="1024" height="1024" viewBox="0 0 1024 1024" fill="none" xmlns="http://www.w3.org/2000/svg">
  <defs>
    <linearGradient id="bg" x1="120" y1="104" x2="910" y2="926" gradientUnits="userSpaceOnUse">
      <stop offset="0" stop-color="#121513"/>
      <stop offset="0.55" stop-color="#1B201C"/>
      <stop offset="1" stop-color="#111412"/>
    </linearGradient>
    <radialGradient id="coreGlow" cx="0" cy="0" r="1" gradientUnits="userSpaceOnUse" gradientTransform="translate(504 540) rotate(90) scale(364 352)">
      <stop offset="0" stop-color="#2A302B"/>
      <stop offset="1" stop-color="#141915" stop-opacity="0"/>
    </radialGradient>
    <linearGradient id="gold" x1="252" y1="234" x2="772" y2="808" gradientUnits="userSpaceOnUse">
      <stop offset="0" stop-color="#F8E5AD"/>
      <stop offset="0.45" stop-color="#E8C97A"/>
      <stop offset="1" stop-color="#C79D4F"/>
    </linearGradient>
    <linearGradient id="goldSoft" x1="290" y1="286" x2="734" y2="760" gradientUnits="userSpaceOnUse">
      <stop offset="0" stop-color="#F5E3B4"/>
      <stop offset="1" stop-color="#D6AC63"/>
    </linearGradient>
    <filter id="goldShadow" x="172" y="170" width="680" height="714" filterUnits="userSpaceOnUse" color-interpolation-filters="sRGB">
      <feFlood flood-opacity="0" result="BackgroundImageFix"/>
      <feColorMatrix in="SourceAlpha" type="matrix" values="0 0 0 0 0 0 0 0 0 0 0 0 0 0 0 0 0 0 127 0" result="hardAlpha"/>
      <feOffset dy="18"/>
      <feGaussianBlur stdDeviation="18"/>
      <feColorMatrix type="matrix" values="0 0 0 0 0.6 0 0 0 0 0.45 0 0 0 0 0.2 0 0 0 0.35 0"/>
      <feBlend mode="normal" in2="BackgroundImageFix" result="effect1_dropShadow_1_1"/>
      <feBlend mode="normal" in="SourceGraphic" in2="effect1_dropShadow_1_1" result="shape"/>
    </filter>
    <filter id="innerLight" x="244" y="230" width="536" height="544" filterUnits="userSpaceOnUse" color-interpolation-filters="sRGB">
      <feFlood flood-opacity="0" result="BackgroundImageFix"/>
      <feBlend mode="normal" in="SourceGraphic" in2="BackgroundImageFix" result="shape"/>
      <feGaussianBlur stdDeviation="10" result="effect1_foregroundBlur_1_1"/>
    </filter>
  </defs>

  <rect x="24" y="24" width="976" height="976" rx="240" fill="url(#bg)"/>
  <ellipse cx="510" cy="892" rx="332" ry="62" fill="#0A0D0B" opacity="0.58"/>
  <ellipse cx="510" cy="540" rx="352" ry="364" fill="url(#coreGlow)"/>

  <g filter="url(#goldShadow)">
    <rect x="236" y="194" width="552" height="636" rx="224" stroke="url(#gold)" stroke-width="10"/>
    <rect x="276" y="234" width="472" height="556" rx="196" stroke="url(#goldSoft)" stroke-width="3.5" opacity="0.85"/>
  </g>

  <g filter="url(#innerLight)">
    <circle cx="360" cy="332" r="112" stroke="url(#goldSoft)" stroke-width="8" opacity="0.7"/>
  </g>

  <path d="M248 686C356 590 530 576 724 694" stroke="url(#gold)" stroke-width="16" stroke-linecap="round"/>
  <path d="M286 742C412 672 566 676 696 772" stroke="url(#goldSoft)" stroke-width="8" stroke-linecap="round" opacity="0.92"/>
  <path d="M294 664C414 584 560 590 710 684" stroke="#F7E7BC" stroke-opacity="0.22" stroke-width="5" stroke-linecap="round"/>

  <g transform="translate(500 154) rotate(22)">
    <path d="M18 28L300 200L174 236L226 364L154 394L100 266L2 342L18 28Z" fill="#161B17" stroke="url(#gold)" stroke-width="11" stroke-linejoin="round"/>
    <path d="M50 74L258 202L166 228L206 338L158 360L112 248L36 306L50 74Z" stroke="url(#goldSoft)" stroke-width="5" stroke-linejoin="round" opacity="0.95"/>
    <path d="M174 236L138 248" stroke="url(#goldSoft)" stroke-width="5" stroke-linecap="round"/>
  </g>

  <ellipse cx="446" cy="792" rx="118" ry="34" fill="#090C0A" opacity="0.62"/>
  <path d="M590 438C524 554 468 656 414 772" stroke="url(#goldSoft)" stroke-width="3.5" stroke-linecap="round" stroke-dasharray="4 10" opacity="0.74"/>

  <g transform="translate(-22 150)">
    <path d="M392 720C392 664 424 614 466 614C508 614 540 664 540 720C540 776 508 818 466 818C424 818 392 776 392 720Z" fill="#171C19" stroke="url(#gold)" stroke-width="7.5"/>
    <path d="M418 690C426 670 442 654 462 648" stroke="url(#goldSoft)" stroke-width="4.6" stroke-linecap="round"/>
    <circle cx="450" cy="724" r="6" fill="#E8CB82"/>
    <path d="M476 724C482 718 490 718 496 724" stroke="#E8CB82" stroke-width="4.8" stroke-linecap="round"/>
    <path d="M454 748C462 758 478 758 486 748" stroke="#E8CB82" stroke-width="4.8" stroke-linecap="round"/>
    <ellipse cx="436" cy="742" rx="7" ry="4" fill="#C69958" opacity="0.64"/>
    <ellipse cx="502" cy="742" rx="7" ry="4" fill="#C69958" opacity="0.64"/>
    <path d="M442 640C446 632 454 626 462 626C470 626 476 632 480 640" stroke="url(#goldSoft)" stroke-width="3.5" stroke-linecap="round" opacity="0.78"/>
  </g>

  <path d="M232 826C382 882 606 874 786 790" stroke="url(#goldSoft)" stroke-width="6" stroke-linecap="round" opacity="0.82"/>
</svg>
